<?xml version="1.0" encoding="utf-8"?>
<!-- Generator: Adobe Illustrator 27.0.0, SVG Export Plug-In . SVG Version: 6.00 Build 0)  -->
<svg version="1.1" id="Warstwa_1" xmlns="http://www.w3.org/2000/svg" xmlns:xlink="http://www.w3.org/1999/xlink" x="0px" y="0px"
	 viewBox="0 0 144 144" style="enable-background:new 0 0 144 144;" xml:space="preserve">
<style type="text/css">
	.st0{fill:#0A2332;}
	.st1{fill:#87BCD8;}
</style>
<rect x="0" class="st0" width="144" height="144"/>
<g>
	<path class="st1" d="M50.8,42.5c0.2,0.2,0.3,0.4,0.3,0.7v6.5c0,0.3-0.1,0.5-0.3,0.7c-0.2,0.2-0.4,0.3-0.7,0.3H39.3
		c-0.3,0-0.4,0.1-0.4,0.4v49.6c0,0.3-0.1,0.5-0.3,0.7c-0.2,0.2-0.4,0.3-0.7,0.3h-7.8c-0.3,0-0.5-0.1-0.7-0.3
		c-0.2-0.2-0.3-0.4-0.3-0.7V51.2c0-0.3-0.1-0.4-0.4-0.4H18.4c-0.3,0-0.5-0.1-0.7-0.3c-0.2-0.2-0.3-0.4-0.3-0.7v-6.5
		c0-0.3,0.1-0.5,0.3-0.7c0.2-0.2,0.4-0.3,0.7-0.3h31.7C50.4,42.2,50.6,42.3,50.8,42.5z"/>
	<path class="st1" d="M82.9,44.4c2.3,1.5,4.1,3.5,5.4,6.2c1.3,2.7,1.9,5.7,1.9,9.1c0,5.1-1.3,9.2-4,12.3c-2.7,3.1-6.2,4.7-10.7,4.7
		h-7.2c-0.3,0-0.4,0.1-0.4,0.4v23.6c0,0.3-0.1,0.5-0.3,0.7c-0.2,0.2-0.4,0.3-0.7,0.3H59c-0.3,0-0.5-0.1-0.7-0.3
		c-0.2-0.2-0.3-0.4-0.3-0.7V43.2c0-0.3,0.1-0.5,0.3-0.7c0.2-0.2,0.4-0.3,0.7-0.3h16C77.9,42.2,80.6,42.9,82.9,44.4z M78.4,66.5
		c1.3-1.6,1.9-3.8,1.9-6.6c0-2.8-0.6-5.1-1.9-6.8c-1.3-1.7-3-2.5-5.1-2.5h-5.1c-0.3,0-0.4,0.1-0.4,0.4v17.4c0,0.3,0.1,0.4,0.4,0.4
		h5.1C75.4,68.9,77.1,68.1,78.4,66.5z"/>
	<path class="st1" d="M99.5,98.2c-2.9-2.8-4.3-6.5-4.3-11.1v-2.2c0-0.3,0.1-0.5,0.3-0.7c0.2-0.2,0.4-0.3,0.7-0.3h7.7
		c0.3,0,0.5,0.1,0.7,0.3c0.2,0.2,0.3,0.4,0.3,0.7v1.7c0,2.2,0.6,4,1.7,5.4c1.1,1.4,2.5,2,4.3,2c1.8,0,3.2-0.6,4.3-1.9
		c1.1-1.3,1.7-3,1.7-5.1c0-1.5-0.3-2.7-0.9-3.8c-0.6-1.1-1.5-2.1-2.6-3.1c-1.1-1-2.9-2.4-5.4-4.2c-2.8-2-5.1-3.9-6.8-5.4
		c-1.7-1.6-3.2-3.5-4.3-5.7C95.6,62.5,95,59.9,95,57c0-4.7,1.4-8.4,4.2-11.2c2.8-2.8,6.6-4.2,11.2-4.2c4.7,0,8.5,1.5,11.4,4.4
		c2.9,2.9,4.3,6.8,4.3,11.6v2c0,0.3-0.1,0.5-0.3,0.7c-0.2,0.2-0.4,0.3-0.7,0.3h-7.6c-0.3,0-0.5-0.1-0.7-0.3
		c-0.2-0.2-0.3-0.4-0.3-0.7v-2.2c0-2.2-0.6-4-1.7-5.3c-1.1-1.3-2.6-2-4.4-2c-1.7,0-3.1,0.6-4.2,1.8c-1.1,1.2-1.6,2.9-1.6,5.1
		c0,2,0.6,3.8,1.7,5.2c1.2,1.4,3.4,3.4,6.8,5.9c3.5,2.6,6.1,4.6,7.8,6.2c1.8,1.6,3.1,3.4,4.1,5.3c1,1.9,1.4,4.2,1.4,6.9
		c0,4.8-1.4,8.7-4.3,11.6c-2.9,2.9-6.7,4.4-11.4,4.4C106.2,102.4,102.4,101,99.5,98.2z"/>
</g>
</svg>
